<?xml version="1.0" encoding="utf-8"?>
<svg xmlns="http://www.w3.org/2000/svg" viewBox="0 0 500 500" xmlns:bx="https://boxy-svg.com" width="500px" height="500px"><defs><bx:export><bx:file format="svg"/><bx:file format="svg" href="#object-0" path="Untitled 2.svg"/><bx:file format="svg" href="#object-1" path="Untitled 3.svg"/><bx:file format="svg" href="#object-2" path="Untitled 4.svg"/><bx:file format="svg" href="#object-3" path="Untitled 5.svg"/><bx:file format="svg" href="#object-4" path="Untitled 6.svg"/><bx:file format="svg" href="#object-5" path="Untitled 7.svg"/><bx:file format="svg" href="#object-6" path="Untitled 8.svg"/><bx:file format="svg" href="#object-7" path="Untitled 9.svg"/><bx:file format="svg" href="#object-8" path="Untitled 10.svg"/><bx:file format="svg" href="#object-9" path="Untitled 11.svg"/><bx:file format="svg" href="#object-10" path="Untitled 12.svg"/><bx:file format="svg" href="#object-11" path="Untitled 13.svg"/><bx:file format="svg" href="#object-12" path="Untitled 14.svg"/></bx:export></defs><path d="M 188.247 80.233 C 188.78 80.227 189.313 80.227 189.862 80.221 C 191.64 80.215 193.419 80.215 195.197 80.215 C 196.475 80.215 197.754 80.209 199.032 80.203 C 202.499 80.197 205.967 80.191 209.434 80.191 C 211.602 80.191 213.77 80.185 215.938 80.185 C 223.506 80.173 231.074 80.167 238.642 80.167 C 245.689 80.167 252.735 80.154 259.782 80.136 C 265.838 80.124 271.894 80.118 277.951 80.118 C 281.565 80.118 285.179 80.112 288.794 80.1 C 292.194 80.088 295.595 80.088 298.996 80.1 C 300.241 80.1 301.486 80.094 302.731 80.088 C 311.17 80.039 318.626 80.294 325.088 86.445 C 327.946 89.441 330.065 92.688 332.088 96.286 C 332.393 96.822 332.698 97.359 333.011 97.912 C 335.638 102.622 338.035 107.434 340.375 112.291 C 340.722 113.01 341.069 113.73 341.426 114.471 C 343.856 119.583 343.856 119.583 343.856 120.956 C 350.648 120.956 357.441 120.956 364.44 120.956 C 364.344 115.54 364.344 115.54 364.222 110.126 C 364.16 103.243 364.16 103.243 366.861 100.372 C 367.274 99.91 367.685 99.448 368.11 98.972 C 370.306 97.059 372.453 97.26 375.249 97.238 C 375.878 97.232 375.878 97.232 376.52 97.226 C 377.908 97.214 379.296 97.206 380.684 97.2 C 381.159 97.198 381.633 97.195 382.122 97.193 C 384.635 97.18 387.147 97.172 389.66 97.166 C 392.251 97.159 394.842 97.139 397.434 97.114 C 399.43 97.099 401.426 97.094 403.422 97.091 C 404.377 97.088 405.332 97.082 406.287 97.07 C 407.626 97.056 408.964 97.056 410.303 97.06 C 411.064 97.057 411.825 97.053 412.609 97.05 C 415.085 97.401 416.382 98.216 418.321 99.767 C 420.659 102.992 420.841 105.931 420.934 109.822 C 420.946 110.262 420.959 110.702 420.972 111.155 C 421.012 112.555 421.047 113.955 421.083 115.356 C 421.109 116.307 421.135 117.259 421.162 118.21 C 421.227 120.538 421.288 122.866 421.348 125.194 C 421.835 125.429 422.323 125.663 422.825 125.906 C 423.794 126.38 423.794 126.38 424.782 126.863 C 425.738 127.328 425.738 127.328 426.713 127.802 C 437.278 133.496 444.678 143.929 448.701 155.012 C 451.173 163.941 450.749 173.165 450.715 182.352 C 450.708 184.932 450.715 187.513 450.721 190.093 C 450.729 195.136 450.724 200.177 450.715 205.219 C 450.705 211.101 450.708 216.983 450.709 222.866 C 450.713 233.366 450.704 243.867 450.69 254.367 C 450.675 264.537 450.671 274.707 450.677 284.877 C 450.684 295.975 450.685 307.072 450.677 318.17 C 450.675 319.355 450.675 320.54 450.674 321.725 C 450.674 322.308 450.673 322.891 450.672 323.492 C 450.669 327.584 450.671 331.676 450.673 335.768 C 450.676 340.761 450.672 345.752 450.661 350.744 C 450.655 353.288 450.651 355.83 450.656 358.373 C 450.661 360.707 450.656 363.042 450.646 365.376 C 450.642 366.606 450.648 367.837 450.653 369.067 C 450.603 376.362 449.933 384.126 446.283 390.588 C 446.069 390.989 445.855 391.389 445.635 391.802 C 445.019 392.944 444.386 394.075 443.748 395.205 C 443.44 395.772 443.133 396.339 442.816 396.924 C 436.258 408.519 426.143 415.93 413.477 419.607 C 409.639 420.492 405.937 420.72 402.02 420.713 C 401.487 420.714 400.955 420.716 400.406 420.717 C 398.62 420.721 396.833 420.721 395.047 420.721 C 393.753 420.723 392.46 420.725 391.167 420.727 C 387.612 420.733 384.056 420.736 380.501 420.737 C 376.667 420.739 372.833 420.746 368.999 420.751 C 360.177 420.762 351.356 420.769 342.534 420.773 C 338.173 420.776 333.812 420.779 329.45 420.782 C 314.515 420.793 299.579 420.802 284.644 420.807 C 283.706 420.807 282.769 420.807 281.832 420.808 C 281.135 420.808 281.135 420.808 280.424 420.808 C 278.069 420.808 275.714 420.81 273.359 420.81 C 272.658 420.81 272.658 420.81 271.943 420.811 C 256.795 420.816 241.648 420.83 226.5 420.849 C 210.477 420.87 194.454 420.882 178.432 420.884 C 176.671 420.884 174.911 420.885 173.151 420.885 C 172.501 420.885 172.501 420.885 171.838 420.885 C 164.874 420.887 157.91 420.896 150.946 420.908 C 143.941 420.92 136.937 420.924 129.932 420.918 C 126.14 420.916 122.347 420.917 118.555 420.928 C 115.08 420.939 111.605 420.939 108.129 420.929 C 106.875 420.928 105.622 420.93 104.368 420.937 C 95.306 420.986 87.175 420.23 79.028 415.864 C 78.624 415.654 78.219 415.445 77.802 415.228 C 74.842 413.659 72.16 411.911 69.607 409.734 C 69.272 409.486 68.937 409.236 68.592 408.98 C 63.294 404.875 59.515 399.091 56.628 393.123 C 56.436 392.735 56.244 392.346 56.046 391.945 C 52.883 385.026 52.386 377.658 52.421 370.158 C 52.418 369.251 52.415 368.343 52.411 367.435 C 52.403 364.965 52.405 362.495 52.409 360.025 C 52.412 357.352 52.404 354.678 52.398 352.005 C 52.388 346.777 52.387 341.55 52.39 336.322 C 52.393 332.071 52.392 327.821 52.389 323.57 C 52.389 322.963 52.388 322.357 52.387 321.733 C 52.387 320.501 52.386 319.269 52.385 318.037 C 52.376 306.5 52.38 294.963 52.387 283.427 C 52.393 272.885 52.385 262.342 52.37 251.8 C 52.356 240.959 52.35 230.118 52.354 219.278 C 52.356 213.198 52.355 207.118 52.344 201.038 C 52.335 195.863 52.335 190.688 52.345 185.514 C 52.35 182.877 52.352 180.24 52.343 177.602 C 52.334 175.183 52.337 172.764 52.349 170.345 C 52.351 169.475 52.349 168.604 52.343 167.734 C 52.263 155.946 56.214 145.477 64.158 136.696 C 64.561 136.237 64.963 135.779 65.379 135.306 C 73.808 126.252 85.736 121.354 98.016 120.775 C 101.422 120.668 104.829 120.657 108.237 120.646 C 109.486 120.636 110.736 120.625 111.985 120.613 C 115.242 120.584 118.5 120.566 121.757 120.55 C 125.094 120.532 128.43 120.504 131.766 120.477 C 138.29 120.425 144.813 120.384 151.337 120.35 C 151.819 119.322 151.819 119.322 152.311 118.273 C 152.743 117.354 153.175 116.434 153.607 115.514 C 153.818 115.065 154.028 114.615 154.246 114.152 C 156.424 109.517 158.661 104.916 161.023 100.372 C 161.318 99.804 161.318 99.804 161.619 99.224 C 166.026 90.842 171.206 84.126 180.473 80.96 C 183.137 80.318 185.522 80.221 188.247 80.233 Z" fill="#BB2A8E" style="" id="object-0"/><path d="M 332.959 173.021 C 333.66 173.605 333.66 173.605 334.375 174.201 C 358.414 194.504 373.576 225.247 376.41 256.444 C 378.742 289.339 368.948 321.823 347.413 346.999 C 346.237 348.345 345.047 349.678 343.856 351.01 C 343.312 351.628 342.768 352.247 342.224 352.866 C 339.312 356.138 336.348 359.137 332.959 361.907 C 332.659 362.16 332.359 362.413 332.05 362.674 C 314.961 377.104 294.233 387.092 272.107 390.719 C 271.038 390.895 269.972 391.086 268.908 391.288 C 262.977 392.34 257.12 392.419 251.115 392.405 C 250.582 392.404 250.049 392.403 249.5 392.403 C 216.055 392.293 186.956 379.204 162.839 356.459 C 162.395 356.04 161.951 355.622 161.494 355.191 C 158.219 352.014 155.352 348.551 152.548 344.956 C 152.16 344.461 152.16 344.461 151.764 343.956 C 131.186 317.463 122.526 284.458 126.376 251.218 C 126.73 248.739 127.19 246.298 127.726 243.853 C 127.906 243.027 127.906 243.027 128.09 242.185 C 131.805 225.765 138.252 209.635 148.31 196.026 C 148.774 195.39 149.238 194.755 149.717 194.101 C 152.946 189.757 156.429 185.698 160.168 181.786 C 160.735 181.192 161.299 180.596 161.859 179.995 C 203.268 135.695 274.373 131.285 332.959 173.021 Z" fill="#F9F8FA" style="" id="object-1"/><path d="M 214.336 291.037 C 217.588 291.646 219.714 293.829 222.169 295.918 C 223.416 296.948 224.667 297.975 225.917 299.001 C 227.275 300.117 228.631 301.235 229.985 302.355 C 232.344 304.301 234.725 306.217 237.117 308.121 C 242.169 312.155 247.118 316.309 252.044 320.496 C 253.35 321.604 254.66 322.709 255.968 323.815 C 257.619 325.209 259.267 326.606 260.915 328.005 C 261.266 328.302 261.616 328.6 261.978 328.906 C 266.24 332.526 270.445 336.192 274.568 339.97 C 275.868 341.157 277.182 342.324 278.51 343.48 C 282.775 347.192 286.951 351.001 291.11 354.831 C 291.441 355.136 291.773 355.441 292.114 355.755 C 293.019 356.591 293.919 357.433 294.818 358.275 C 295.306 358.696 295.795 359.116 296.298 359.549 C 297.24 360.697 297.24 360.697 297.339 361.929 C 296.244 363.777 294.524 364.377 292.623 365.199 C 292.006 365.473 292.006 365.473 291.377 365.752 C 268.677 375.62 244 376.201 220.353 369.778 C 219.357 369.508 219.357 369.508 218.341 369.233 C 204.793 365.114 204.793 365.114 200.98 361.302 C 200.14 354.205 202.007 346.846 203.175 339.886 C 203.397 338.536 203.618 337.187 203.839 335.837 C 204.175 333.79 204.511 331.744 204.849 329.697 C 205.55 325.455 206.231 321.21 206.89 316.961 C 206.971 316.438 207.052 315.916 207.136 315.379 C 207.439 313.421 207.743 311.463 208.043 309.505 C 210.861 291.108 210.861 291.108 214.336 291.037 Z" fill="#BB2A8E" style="" id="object-2"/><path d="M 210.667 245.669 C 210.966 245.969 210.966 245.969 211.272 246.275 C 211.238 251.522 209.84 256.75 208.775 261.864 C 207.348 268.73 206.036 275.614 204.778 282.513 C 202.406 295.511 199.892 308.479 197.315 321.438 C 196.824 323.91 196.337 326.383 195.853 328.858 C 195.258 331.904 194.656 334.949 194.049 337.993 C 193.822 339.138 193.596 340.284 193.374 341.43 C 193.067 343.011 192.751 344.589 192.433 346.167 C 192.344 346.634 192.256 347.101 192.164 347.582 C 191.801 349.345 191.478 350.759 190.404 352.224 C 189.477 352.826 189.477 352.826 188.032 352.772 C 173.281 347.634 160.748 326.135 154.288 312.794 C 148.402 300.175 144.575 286.347 144.563 272.383 C 144.556 271.874 144.549 271.365 144.541 270.841 C 144.54 270.352 144.539 269.864 144.537 269.361 C 144.535 268.923 144.533 268.485 144.53 268.034 C 144.677 266.859 144.677 266.859 145.888 265.042 C 147.106 264.495 147.106 264.495 148.631 264.036 C 149.206 263.858 149.782 263.681 150.375 263.499 C 151.007 263.312 151.639 263.126 152.29 262.933 C 152.951 262.732 153.612 262.53 154.292 262.322 C 156.471 261.659 158.652 261.005 160.834 260.35 C 163.869 259.43 166.903 258.506 169.937 257.581 C 170.715 257.345 171.493 257.109 172.27 256.872 C 177.402 255.31 182.516 253.7 187.621 252.052 C 188.277 251.84 188.934 251.628 189.61 251.41 C 192.124 250.598 194.638 249.784 197.149 248.963 C 198.862 248.403 200.576 247.848 202.29 247.294 C 202.791 247.128 203.292 246.962 203.808 246.791 C 206.139 246.042 208.186 245.385 210.667 245.669 Z" fill="#BB298D" style="" id="object-3"/><path d="M 355.964 272.913 C 358.086 276.096 357.299 279.822 356.661 283.441 C 356.425 284.625 356.179 285.807 355.926 286.988 C 355.791 287.62 355.656 288.252 355.518 288.904 C 353.303 298.885 349.993 308.153 345.067 317.107 C 344.766 317.665 344.766 317.665 344.459 318.235 C 337.939 330.292 329.071 341.195 318.315 349.724 C 317.97 349.997 317.625 350.271 317.269 350.554 C 311.204 355.248 311.204 355.248 308.071 355.248 C 306.022 354.539 304.782 353.635 303.142 352.221 C 302.565 351.727 301.987 351.234 301.392 350.726 C 299.293 348.867 297.209 346.994 295.137 345.105 C 293.565 343.708 291.952 342.379 290.315 341.058 C 288.013 339.196 285.797 337.275 283.618 335.269 C 280.971 332.836 278.243 330.547 275.447 328.288 C 272.547 325.905 269.729 323.431 266.898 320.967 C 264.523 318.899 262.134 316.847 259.742 314.799 C 259.373 314.483 259.004 314.167 258.624 313.842 C 257.774 313.114 256.923 312.386 256.072 311.659 C 256.197 310.533 256.197 310.533 256.677 309.237 C 257.897 308.496 257.897 308.496 259.519 307.875 C 260.424 307.521 260.424 307.521 261.347 307.16 C 262.335 306.791 262.335 306.791 263.344 306.413 C 264.026 306.149 264.707 305.886 265.41 305.615 C 267.541 304.795 269.676 303.988 271.813 303.183 C 273.061 302.707 274.311 302.23 275.56 301.752 C 278.659 300.572 281.763 299.406 284.869 298.243 C 288.334 296.945 291.797 295.641 295.26 294.336 C 295.971 294.068 296.682 293.8 297.415 293.524 C 305.161 290.603 312.894 287.648 320.623 284.68 C 321.286 284.426 321.947 284.173 322.63 283.911 C 328.726 281.574 334.817 279.237 340.836 276.706 C 341.23 276.541 341.623 276.376 342.029 276.206 C 343.741 275.487 345.447 274.757 347.146 274.005 C 350.374 272.624 352.546 271.815 355.964 272.913 Z" fill="#BB298D" style="" id="object-4"/><path d="M 248.088 160.818 C 259.145 160.514 270.297 161.991 280.894 165.15 C 281.279 165.264 281.665 165.378 282.063 165.496 C 287.391 167.092 292.344 169.157 297.24 171.81 C 297.289 174.584 297.137 177.186 296.703 179.926 C 296.232 183.061 295.823 186.195 295.487 189.347 C 295.397 190.191 295.306 191.035 295.216 191.878 C 295.17 192.308 295.124 192.736 295.076 193.178 C 293.959 203.487 292.422 213.669 290.58 223.875 C 290.423 224.757 290.266 225.641 290.11 226.523 C 289.709 228.786 289.302 231.047 288.889 233.307 C 288.731 234.177 288.574 235.047 288.418 235.918 C 288.201 237.122 287.978 238.326 287.754 239.53 C 287.628 240.22 287.501 240.91 287.37 241.62 C 286.948 243.248 286.948 243.248 285.737 244.459 C 283.117 244.299 281.717 243.254 279.758 241.583 C 278.887 240.846 278.887 240.846 277.999 240.093 C 277.349 239.531 276.699 238.968 276.05 238.405 C 275.325 237.779 274.6 237.153 273.875 236.527 C 272.332 235.192 270.792 233.855 269.253 232.516 C 267.142 230.681 265.018 228.861 262.883 227.053 C 262.559 226.78 262.237 226.506 261.904 226.224 C 259.881 224.518 257.831 222.847 255.769 221.188 C 252.513 218.541 249.452 215.71 246.388 212.847 C 244.951 211.508 243.488 210.207 241.996 208.929 C 237.661 205.157 233.846 201.069 230.259 196.584 C 229.036 195.071 227.78 193.595 226.505 192.127 C 212.247 175.646 212.247 175.646 212.483 169.388 C 223.222 163.473 235.942 161.316 248.088 160.818 Z" fill="#BB298E" style="" id="object-5"/><path d="M 308.742 179.68 C 315.074 180.518 320.362 186.694 324.836 190.971 C 325.623 191.721 326.422 192.46 327.221 193.198 C 335.203 200.792 341.13 209.965 346.277 219.637 C 346.484 220.022 346.692 220.406 346.906 220.803 C 352.073 230.551 359.396 248.38 356.569 259.594 C 354.279 261.186 351.758 262.235 349.193 263.302 C 348.763 263.483 348.332 263.664 347.888 263.851 C 346.457 264.452 345.024 265.05 343.591 265.648 C 342.579 266.072 341.567 266.495 340.555 266.92 C 332.294 270.378 324.019 273.804 315.742 277.226 C 315.155 277.468 314.569 277.711 313.964 277.961 C 311.2 279.104 308.434 280.242 305.666 281.374 C 303.758 282.155 301.858 282.95 299.963 283.762 C 299.15 284.104 298.335 284.447 297.521 284.789 C 296.831 285.084 296.141 285.38 295.43 285.685 C 293.487 286.267 292.488 286.255 290.58 285.626 C 289.975 285.021 289.975 285.021 289.875 282.913 C 289.914 280.05 290.397 277.341 290.954 274.539 C 291.058 273.994 291.162 273.448 291.27 272.885 C 291.497 271.701 291.727 270.516 291.957 269.332 C 292.589 266.084 293.205 262.833 293.822 259.582 C 294.018 258.554 294.018 258.554 294.217 257.506 C 295.72 249.597 297.149 241.676 298.564 233.75 C 298.692 233.034 298.82 232.317 298.952 231.579 C 300.548 222.614 302.106 213.643 303.558 204.653 C 303.631 204.201 303.705 203.748 303.78 203.282 C 304.445 199.15 305.09 195.016 305.668 190.87 C 305.749 190.297 305.83 189.723 305.913 189.132 C 306.051 188.133 306.183 187.135 306.306 186.134 C 306.652 183.591 307.254 181.78 308.742 179.68 Z" fill="#BB2A8D" style="" id="object-6"/><path d="M 202.796 174.837 C 204.237 176.154 204.237 176.154 205.558 178.053 C 205.932 178.573 205.932 178.573 206.313 179.104 C 206.867 179.877 207.415 180.653 207.957 181.432 C 209.591 183.765 211.286 186.051 212.974 188.345 C 213.333 188.835 213.692 189.325 214.062 189.83 C 217.028 193.859 220.141 197.746 223.321 201.607 C 225.423 204.161 227.466 206.759 229.491 209.374 C 230.78 211.033 232.088 212.657 233.481 214.231 C 233.981 214.803 234.481 215.376 234.996 215.966 C 235.442 216.459 235.888 216.951 236.347 217.459 C 237.61 219.533 237.606 220.882 237.304 223.269 C 236.072 224.827 234.879 225.442 233.02 226.073 C 232.519 226.246 232.018 226.419 231.502 226.598 C 230.681 226.872 230.681 226.872 229.843 227.152 C 229.266 227.35 228.69 227.548 228.096 227.752 C 226.843 228.18 225.59 228.607 224.336 229.032 C 221.647 229.943 218.962 230.865 216.278 231.787 C 214.881 232.267 213.483 232.746 212.086 233.225 C 205.039 235.64 198.012 238.111 190.991 240.599 C 190.396 240.809 189.802 241.019 189.19 241.235 C 182.632 243.553 176.09 245.907 169.572 248.334 C 168.996 248.548 168.42 248.762 167.827 248.982 C 165.101 249.994 162.379 251.013 159.661 252.045 C 158.695 252.406 157.73 252.766 156.764 253.126 C 156.336 253.291 155.906 253.457 155.465 253.629 C 152.795 254.613 150.545 255.016 147.704 254.75 C 146.243 253.289 146.283 252.905 146.228 250.891 C 146.629 232.858 157.293 214.499 168.288 200.869 C 168.582 200.5 168.875 200.131 169.177 199.751 C 172.689 195.343 172.689 195.343 174.342 193.605 C 174.742 193.605 175.141 193.605 175.553 193.605 C 175.853 192.705 175.853 192.705 176.158 191.788 C 177.022 190.897 177.022 190.897 178.163 189.934 C 178.605 189.562 179.047 189.189 179.502 188.806 C 179.997 188.391 180.492 187.977 181.002 187.55 C 181.521 187.092 182.041 186.634 182.576 186.162 C 186.094 183.115 189.735 180.373 193.601 177.788 C 194.028 177.494 194.456 177.2 194.895 176.897 C 197.564 175.159 199.522 174.2 202.796 174.837 Z" fill="#BB2A8E" style="" id="object-7"/><path d="M 170.71 86.445 C 171.109 86.445 171.509 86.445 171.921 86.445 C 170.921 89.048 169.052 90.612 167.077 92.502 C 166.678 92.302 166.278 92.102 165.866 91.896 C 166.644 90.985 167.427 90.077 168.212 89.169 C 168.866 88.412 168.866 88.412 169.532 87.637 C 169.921 87.244 170.31 86.85 170.71 86.445 Z" fill="#B41C84" style="" id="object-8"/><path d="M 181.607 186.945 C 182.007 187.145 182.406 187.345 182.818 187.55 C 182.154 188.349 181.484 189.143 180.812 189.934 C 180.44 190.376 180.068 190.819 179.684 191.275 C 178.58 192.394 178.58 192.394 176.764 192.999 C 177.763 190.4 179.632 188.834 181.607 186.945 Z" fill="#B2147E" style="" id="object-9"/><path d="M 169.499 199.659 C 169.699 200.058 169.898 200.458 170.104 200.869 C 168.706 202.468 167.307 204.066 165.866 205.713 C 165.866 203.54 166.268 203.225 167.683 201.664 C 168.02 201.287 168.357 200.91 168.704 200.522 C 168.967 200.237 169.229 199.952 169.499 199.659 Z" fill="#B41781" style="" id="object-10"/><path d="M 173.737 194.815 C 173.937 195.415 174.136 196.014 174.342 196.632 C 172.544 198.13 172.544 198.13 170.71 199.659 C 170.71 197.842 170.71 197.842 172.223 196.215 C 172.723 195.753 173.222 195.291 173.737 194.815 Z" fill="#B41982" style="" id="object-11"/><path d="M 374.732 288.048 C 375.942 289.864 375.942 289.864 375.715 291.793 C 375.591 292.355 375.465 292.917 375.337 293.496 C 374.937 293.496 374.538 293.496 374.126 293.496 C 374.326 291.698 374.526 289.9 374.732 288.048 Z" fill="#B41782" style="" id="object-12"/></svg>